<svg width="153" height="153" viewBox="0 0 153 153" fill="none" xmlns="http://www.w3.org/2000/svg">
<g style="mix-blend-mode:soft-light">
<path d="M104.367 15.1516C102.261 8.86242 94.9769 4.95933 88.0981 6.43379C81.2193 7.90825 77.3505 14.2019 79.4569 20.4911C81.5633 26.7802 88.8472 30.6833 95.7259 29.2089C102.605 27.7344 106.474 21.4408 104.367 15.1516Z" fill="white"/>
<path fill-rule="evenodd" clip-rule="evenodd" d="M104.926 86.5478C103.336 96.2076 102.21 106.617 102.432 110.486C102.585 113.323 105.585 115.524 109.13 115.402C112.677 115.28 115.429 112.88 115.276 110.042C115.084 106.686 116.164 97.0326 117.669 87.8783C117.991 85.9297 118.329 84.0178 118.671 82.2087C119.241 84.1292 119.755 86.0839 120.227 88.0815C121.869 95.0436 122.977 102.463 123.933 110.728C124.254 113.555 127.377 115.639 130.911 115.383C134.446 115.127 137.05 112.628 136.728 109.801C135.728 101.149 134.574 93.4034 132.871 86.188C130.153 74.6579 128.485 60.2135 125.518 50.4924C123.469 43.7825 120.584 36.9464 117.984 33.4776C114.86 29.3001 108.095 27.939 102.873 30.4384C99.0446 32.2708 97.4671 35.6502 97.5788 39.0003C97.7441 43.9404 96.1926 49.3615 93.3759 54.0873C91.0763 57.9491 87.669 61.3187 82.7929 63.4632C80.1231 64.637 79.1454 67.3188 80.6127 69.4559C82.0784 71.593 85.4322 72.3739 88.1035 71.2013C95.2395 68.063 100.129 63.293 103.35 57.8878C103.749 57.2195 104.121 56.5402 104.467 55.8536C108.573 69.768 107.336 71.9149 104.926 86.5478Z" fill="white"/>
<path fill-rule="evenodd" clip-rule="evenodd" d="M81.4909 41.7151L74.2632 40.1656C69.8308 39.2157 67.5862 38.627 66.7478 39.5107L19.7217 29.4286C19.2306 29.3234 18.7257 29.5559 18.5941 29.9501L16.2777 36.8632C16.2134 37.0517 16.2486 37.2439 16.3557 37.403L19.0852 42.0848C19.2994 42.4532 19.8456 42.6136 20.3062 42.4422L25.3766 40.5511L27.7404 44.6062C27.9546 44.9747 28.5009 45.1338 28.9614 44.9636L34.0318 43.0726L36.3957 47.1277C36.6099 47.4961 37.1561 47.6564 37.6166 47.4851L42.687 45.594L45.0509 49.6491C45.2651 50.0175 45.8113 50.1779 46.2718 50.0065L51.3422 48.1154L53.7046 52.1706C53.9188 52.539 54.465 52.6981 54.9255 52.528L59.9959 50.6369L62.3582 54.692C62.4776 54.8976 62.701 55.0384 62.9549 55.0935L66.3684 55.8266C67.0217 56.5525 67.7576 57.0825 68.5394 57.2502L75.7672 58.7997C77.7669 59.2281 79.6702 58.0653 81.1925 56.1706C82.923 56.8389 84.86 57.3481 86.9102 57.6382C87.3799 57.7043 87.8542 57.7606 88.3392 57.8034C89.6611 56.4852 90.778 55.02 91.7082 53.457C92.5849 51.9833 93.3453 50.4202 93.9635 48.8094C92.207 49.1558 90.4322 49.1644 88.8119 48.9343C86.9974 48.6785 85.4949 48.1571 84.5356 47.5181C84.7284 44.6454 83.8777 42.2268 81.4909 41.7151ZM77.62 54.3713C76.4602 55.2734 75.1215 55.7018 73.8883 55.4374C71.4556 54.916 73.2809 52.5316 74.3504 49.337C75.4198 46.1436 75.3311 43.348 77.7623 43.8694C78.9281 44.1191 79.788 44.9404 80.2501 46.0787C78.8777 46.1154 77.519 46.561 76.4847 47.4104C74.3611 49.1558 74.41 51.9478 76.5918 53.6455C76.9131 53.8952 77.2574 54.1375 77.62 54.3713ZM66.1633 40.9098L63.6021 48.5549C63.2946 49.4716 63.9295 51.9417 65.1061 54.0249L63.8469 53.7544L61.2765 49.3456C61.0623 48.9771 60.5146 48.8168 60.0556 48.9882L54.9852 50.8792L52.6213 46.8253C52.4071 46.4569 51.8609 46.2966 51.4004 46.4679L46.33 48.359L43.9676 44.3039C43.7534 43.9355 43.2057 43.7751 42.7467 43.9465L37.6763 45.8376L35.3139 41.7825C35.0997 41.414 34.552 41.2537 34.093 41.4251L29.0226 43.3161L26.6603 39.261C26.4461 38.8926 25.8983 38.7323 25.4393 38.9036L20.3689 40.7947L18.1473 36.9844L20.1379 31.0394L66.1633 40.9098Z" fill="white"/>
<path d="M68.8653 63.2257H32.0214V70.5942H68.8653V63.2257Z" fill="white"/>
<path fill-rule="evenodd" clip-rule="evenodd" d="M35.7056 72.0679H41.232L38.7442 91.964H62.141L59.6532 72.0679H65.1796L70.7059 116.28H65.1796L62.6933 96.3851H38.1919L35.7056 116.28H30.1793L35.7056 72.0679Z" fill="white"/>
<path d="M61.4953 58.8046H39.3898V61.752H61.4953V58.8046Z" fill="white"/>
</g>
</svg>
