<?xml version="1.0" standalone="no"?>
<!DOCTYPE svg PUBLIC "-//W3C//DTD SVG 20010904//EN"
 "http://www.w3.org/TR/2001/REC-SVG-20010904/DTD/svg10.dtd">
<svg version="1.0" xmlns="http://www.w3.org/2000/svg"
 width="181.000000pt" height="160.000000pt" viewBox="0 0 181.000000 160.000000"
 preserveAspectRatio="xMidYMid meet">

<g transform="translate(0.000000,160.000000) scale(0.100000,-0.100000)"
fill="#000000" stroke="none">
<path d="M975 1551 c-31 -14 -65 -54 -75 -91 -34 -120 122 -232 240 -172 101
50 105 173 7 246 -30 22 -136 33 -172 17z"/>
<path d="M1218 1268 c-58 -16 -84 -54 -92 -136 -12 -120 -73 -220 -169 -276
-48 -29 -57 -49 -37 -86 14 -26 54 -33 96 -15 60 25 133 84 168 137 l33 49 14
-63 c18 -81 15 -153 -11 -308 -11 -69 -23 -170 -27 -226 -5 -94 -4 -103 16
-123 27 -27 80 -28 115 0 20 16 26 29 26 59 0 49 29 277 39 303 8 21 32 -75
51 -208 18 -124 21 -136 41 -156 27 -27 81 -25 114 4 l27 23 -12 79 c-14 98
-83 465 -111 595 -37 166 -103 310 -156 339 -31 16 -86 20 -125 9z"/>
<path d="M126 1224 c-15 -45 -15 -48 5 -81 16 -26 27 -33 40 -29 11 3 28 9 39
12 15 5 22 0 32 -21 12 -27 30 -29 79 -10 10 4 20 -3 29 -20 14 -27 32 -29 80
-11 10 4 21 -4 32 -24 17 -29 17 -29 52 -15 32 14 36 13 45 -3 25 -43 26 -43
64 -27 37 15 37 15 49 -10 27 -59 214 -103 242 -56 4 6 18 6 39 0 55 -16 66
-11 97 38 17 26 30 51 30 55 0 4 -17 8 -37 8 -48 0 -63 10 -82 52 -14 29 -24
35 -81 50 -36 9 -83 16 -105 17 -22 1 -165 28 -318 61 -154 33 -287 60 -297
60 -13 0 -23 -14 -34 -46z m338 -39 c143 -30 261 -57 264 -59 2 -3 -3 -27 -12
-54 -12 -36 -14 -56 -7 -76 15 -37 -4 -33 -19 5 -13 31 -12 31 -75 13 -16 -4
-25 2 -35 21 -10 19 -19 25 -35 21 -61 -18 -61 -18 -73 8 -13 29 -19 31 -58
16 -24 -10 -30 -8 -49 16 -21 27 -32 28 -77 9 -12 -5 -21 2 -33 24 -15 31 -16
31 -50 16 -34 -13 -36 -13 -51 10 -13 20 -14 30 -4 60 10 30 16 36 34 31 11
-3 138 -30 280 -61z m436 -110 c10 -12 10 -15 -4 -15 -9 0 -25 -9 -36 -20 -23
-23 -23 -23 -9 19 12 34 29 40 49 16z m-46 -82 c3 -10 9 -24 12 -30 4 -9 -3
-13 -20 -13 -28 0 -29 3 -20 38 8 26 19 29 28 5z"/>
<path d="M400 890 c0 -19 7 -20 140 -20 133 0 140 1 140 20 0 19 -7 20 -140
20 -133 0 -140 -1 -140 -20z"/>
<path d="M310 805 l0 -45 230 0 230 0 0 45 0 45 -230 0 -230 0 0 -45z"/>
<path d="M322 483 c-18 -142 -32 -266 -32 -275 0 -14 8 -18 34 -18 l34 0 11
98 c7 53 14 109 17 125 l6 27 148 0 148 0 6 -27 c3 -16 10 -72 17 -125 l11
-98 34 0 c19 0 34 3 34 8 1 4 -14 127 -32 275 l-32 267 -36 0 -36 0 12 -97 c7
-54 13 -110 14 -125 l0 -28 -140 0 -140 0 0 28 c1 15 7 71 14 125 l12 97 -36
0 -36 0 -32 -257z"/>
</g>
</svg>
