<?xml version="1.0" standalone="no"?>
<!DOCTYPE svg PUBLIC "-//W3C//DTD SVG 20010904//EN"
 "http://www.w3.org/TR/2001/REC-SVG-20010904/DTD/svg10.dtd">
<svg version="1.0" xmlns="http://www.w3.org/2000/svg"
 width="752.000000pt" height="670.000000pt" viewBox="0 0 752.000000 670.000000"
 preserveAspectRatio="xMidYMid meet">

<g transform="translate(0.000000,670.000000) scale(0.100000,-0.100000)"
fill="#000000" stroke="none">
<path d="M6000 6283 c-37 -31 -1441 -1707 -1460 -1743 -7 -14 -10 -43 -8 -72
4 -41 12 -57 42 -86 l36 -37 281 -3 c214 -2 280 -6 276 -15 -199 -536 -387
-1064 -387 -1089 0 -42 31 -93 72 -119 48 -29 118 -22 160 17 67 64 1434 1708
1451 1746 26 56 16 102 -33 150 l-38 38 -276 0 c-220 0 -276 3 -276 13 0 7 86
247 192 533 201 543 209 575 174 629 -45 68 -148 87 -206 38z m-426 -1084
c-51 -136 -87 -249 -87 -270 0 -21 10 -53 22 -72 38 -61 63 -67 301 -67 116 0
210 -4 208 -9 -6 -16 -668 -803 -668 -794 0 5 37 108 81 228 45 121 84 236 86
256 6 43 -14 86 -57 123 l-32 26 -225 0 c-123 0 -223 4 -221 8 5 12 673 810
676 807 1 -1 -37 -107 -84 -236z"/>
<path d="M2740 5998 c-56 -15 -142 -80 -183 -139 -36 -51 -42 -55 -120 -80
-318 -100 -585 -322 -717 -594 -51 -104 -79 -209 -87 -316 l-6 -87 -48 -36
c-112 -84 -175 -241 -149 -375 32 -165 166 -304 315 -327 l44 -6 5 -57 c13
-128 27 -202 52 -282 68 -218 203 -411 382 -545 42 -32 80 -61 85 -64 4 -4
-40 -17 -99 -29 -417 -87 -815 -262 -1130 -496 -126 -94 -320 -294 -398 -412
-118 -178 -170 -334 -169 -508 0 -91 5 -124 27 -192 119 -366 547 -569 1366
-647 302 -29 640 -39 1150 -33 490 6 649 13 910 42 854 95 1266 346 1297 791
31 434 -377 926 -1018 1228 -211 99 -413 167 -654 220 -66 15 -124 28 -128 29
-4 1 19 22 52 45 264 186 429 469 463 797 l11 113 38 5 c102 14 223 103 277
205 64 120 65 240 2 369 -28 56 -117 153 -140 153 -5 0 -11 21 -14 48 -23 188
-46 273 -108 397 -126 248 -382 456 -687 559 -96 32 -102 36 -134 82 -40 59
-116 118 -176 139 -50 17 -252 19 -311 3z m225 -274 c40 -16 45 -52 45 -312 0
-242 1 -250 23 -283 44 -66 127 -87 187 -46 70 47 74 60 78 243 5 190 -6 180
117 115 l70 -37 5 -211 c5 -209 5 -212 30 -238 68 -73 152 -73 219 -1 19 20
26 41 30 93 l6 68 27 -55 c29 -60 58 -163 58 -204 l0 -26 -971 0 -971 0 7 52
c8 59 33 136 62 193 l20 38 6 -62 c4 -45 12 -71 31 -96 46 -60 140 -71 201
-23 49 38 55 70 55 282 l0 195 81 40 c45 23 88 41 95 41 11 0 14 -31 14 -162
0 -144 2 -167 20 -195 53 -87 158 -96 230 -18 l25 27 5 266 c5 266 10 302 42
315 19 8 134 8 153 1z m1045 -1189 c34 -18 60 -62 60 -102 0 -38 -34 -91 -66
-103 -16 -6 -431 -10 -1115 -10 -1197 0 -1131 -3 -1164 60 -19 37 -19 73 0
110 32 63 -35 59 1163 60 958 0 1097 -2 1122 -15z m-313 -581 c-10 -108 -32
-186 -82 -289 -181 -369 -600 -541 -989 -407 -301 104 -511 374 -541 696 l-7
76 812 0 813 0 -6 -76z m-579 -1119 c6 -6 -30 -70 -57 -98 -99 -107 -277 -93
-358 27 -47 69 -45 74 35 79 69 5 374 -2 380 -8z m-719 -102 c58 -168 206
-304 371 -342 68 -16 199 -13 261 5 139 41 261 140 323 265 19 39 38 86 42
105 3 19 10 34 15 34 5 0 42 -7 84 -17 l75 -16 0 -539 0 -538 -680 0 -680 0 0
539 0 539 73 15 c39 8 77 15 82 16 6 0 21 -29 34 -66z m-479 -849 l0 -796 -37
6 c-21 3 -64 8 -96 12 l-57 6 2 751 3 750 85 33 c47 18 88 33 93 34 4 0 7
-358 7 -796z m2063 753 l77 -30 -2 -746 -3 -745 -40 -7 c-22 -3 -66 -9 -97
-13 l-58 -6 0 796 0 795 23 -6 c12 -4 57 -21 100 -38z m-2545 -1151 l-3 -324
-120 34 c-207 59 -366 150 -445 252 -187 243 15 645 480 955 l85 57 3 -325 c1
-179 1 -471 0 -649z m3027 896 c345 -238 531 -513 513 -760 -14 -191 -181
-331 -512 -426 -48 -14 -97 -26 -107 -26 -18 0 -19 19 -19 645 l0 646 23 -12
c12 -6 58 -37 102 -67z m-895 -1146 l0 -164 -107 -8 c-139 -10 -1005 -10
-1145 0 l-108 8 0 164 0 164 680 0 680 0 0 -164z"/>
<path d="M6305 4331 c-19 -11 -107 -131 -240 -327 -259 -381 -250 -345 -129
-536 l82 -128 -79 -222 c-100 -283 -92 -265 -131 -273 -52 -11 -93 -42 -111
-82 -9 -21 -72 -191 -139 -378 l-122 -340 0 -95 c-1 -77 3 -104 21 -142 26
-58 93 -132 149 -164 50 -29 226 -90 288 -99 124 -19 286 67 345 184 20 38
205 550 257 707 26 82 21 129 -22 174 l-24 26 88 244 87 245 140 48 c151 51
189 76 205 137 6 19 23 192 40 384 29 346 29 350 11 392 -14 30 -31 48 -58 62
-77 39 -554 202 -591 202 -20 0 -50 -8 -67 -19z m428 -401 c4 -4 -1 -111 -13
-238 -11 -128 -20 -234 -20 -236 0 -2 -57 -23 -126 -46 -78 -26 -138 -53 -156
-69 -24 -21 -47 -78 -129 -306 -54 -154 -101 -285 -103 -292 -6 -15 -66 5 -66
22 0 6 45 139 101 295 76 216 99 293 95 318 -2 18 -37 84 -76 147 -40 63 -70
119 -68 124 1 5 61 94 133 199 l129 190 146 -51 c80 -27 149 -53 153 -57z
m-678 -1456 c71 -25 131 -46 132 -48 7 -6 -197 -560 -212 -576 -24 -27 -50
-25 -149 11 -94 34 -107 44 -108 86 0 22 65 214 184 546 5 15 13 27 17 27 4 0
65 -21 136 -46z"/>
</g>
</svg>
