<?xml version="1.0" standalone="no"?>
<!DOCTYPE svg PUBLIC "-//W3C//DTD SVG 20010904//EN"
 "http://www.w3.org/TR/2001/REC-SVG-20010904/DTD/svg10.dtd">
<svg version="1.0" xmlns="http://www.w3.org/2000/svg"
 width="775.000000pt" height="782.000000pt" viewBox="0 0 775.000000 782.000000"
 preserveAspectRatio="xMidYMid meet">

<g transform="translate(0.000000,782.000000) scale(0.100000,-0.100000)"
fill="#000000" stroke="none">
<path d="M3519 7804 c-153 -33 -281 -105 -390 -221 -107 -113 -165 -235 -189
-398 -23 -149 2 -291 77 -445 84 -172 262 -322 443 -374 257 -74 536 -9 730
170 300 278 306 777 13 1070 -174 175 -438 251 -684 198z m272 -299 c115 -30
230 -119 280 -217 88 -173 51 -395 -88 -533 -170 -167 -470 -156 -633 22 -64
70 -97 140 -111 236 -20 136 18 258 113 362 115 126 273 173 439 130z"/>
<path d="M5541 6912 c-19 -9 -44 -30 -55 -45 -21 -28 -21 -35 -24 -1038 -1
-555 -3 -1009 -5 -1009 -1 0 -83 27 -182 60 l-180 60 -500 499 -500 498 -78
32 c-147 60 -216 73 -392 75 -185 1 -252 -11 -395 -73 -381 -164 -695 -507
-898 -981 -139 -324 -239 -721 -278 -1104 -27 -274 1 -390 128 -516 73 -73
133 -106 225 -121 235 -39 473 123 514 349 6 31 13 59 16 62 9 8 -2 -76 -159
-1202 l-151 -1087 17 -68 c24 -100 60 -165 127 -232 206 -204 583 -134 712
131 34 72 36 83 113 645 43 314 80 570 82 568 2 -1 39 -260 82 -574 76 -551
80 -573 112 -638 161 -327 639 -333 798 -10 66 135 72 63 -98 1278 l-152 1084
0 383 0 384 94 -89 c52 -49 114 -99 138 -111 24 -12 220 -81 436 -154 l392
-133 0 -890 0 -890 -65 -34 c-78 -40 -161 -126 -201 -208 -36 -72 -44 -168
-21 -240 9 -26 23 -91 32 -143 33 -201 160 -363 353 -452 112 -51 180 -60 371
-46 134 9 193 9 292 -1 192 -20 439 5 587 59 198 74 292 179 278 313 -11 111
-77 206 -177 258 -23 11 -83 37 -133 56 -106 41 -228 101 -274 136 -18 13 -59
60 -92 105 -147 197 -329 298 -562 309 l-108 6 0 818 0 819 35 0 c45 0 145 33
196 66 64 40 117 101 157 182 37 76 37 77 37 201 0 121 -1 129 -32 194 -37 77
-116 163 -184 197 -24 13 -80 35 -124 50 l-80 27 -5 1054 c-6 1183 1 1088 -80
1129 -48 25 -94 25 -139 2z m-1686 -1182 c57 -21 86 -48 575 -535 l515 -513
435 -146 c239 -81 448 -155 464 -164 66 -38 89 -135 50 -203 -25 -42 -78 -79
-114 -79 -14 0 -242 72 -506 160 l-479 160 -230 229 c-261 260 -265 263 -352
220 -26 -13 -56 -37 -67 -52 -21 -28 -21 -42 -24 -615 l-3 -587 152 -1085
c135 -971 150 -1090 139 -1130 -12 -50 -32 -75 -72 -96 -61 -32 -156 -3 -192
57 -12 20 -49 259 -131 836 -125 885 -123 876 -195 915 -29 15 -58 18 -162 18
l-127 0 -36 -31 c-24 -22 -39 -47 -49 -83 -8 -28 -60 -402 -115 -831 -73 -560
-106 -790 -119 -814 -25 -50 -63 -74 -124 -79 -64 -5 -113 23 -141 80 l-19 38
151 1092 151 1093 0 650 c0 614 -1 652 -19 685 -29 55 -64 75 -130 75 -100 -1
-128 -35 -226 -280 -110 -274 -173 -559 -220 -996 -11 -98 -62 -149 -150 -149
-93 0 -145 55 -145 155 0 85 35 351 65 497 169 808 499 1313 979 1493 94 35
160 44 296 41 89 -3 129 -9 175 -26z m2152 -3899 c60 -32 88 -58 259 -240 38
-40 96 -92 129 -116 81 -58 214 -123 282 -138 l55 -13 -133 -21 c-121 -19
-170 -21 -504 -18 l-370 2 -51 26 c-111 56 -157 119 -173 237 -5 41 -17 95
-25 118 -18 51 -12 69 37 105 93 71 187 98 327 94 97 -2 109 -5 167 -36z"/>
<path d="M1230 3196 c-281 -41 -487 -122 -592 -234 -100 -106 -99 -63 -8 -895
78 -702 79 -710 110 -773 69 -141 239 -237 515 -290 122 -24 395 -24 521 -1
271 50 463 156 530 293 25 51 32 98 105 762 85 759 85 753 39 842 -65 128
-269 232 -560 285 -128 24 -525 30 -660 11z m562 -301 c165 -22 324 -72 363
-115 16 -17 14 -20 -22 -44 -47 -33 -161 -69 -284 -92 -119 -23 -504 -26 -619
-6 -162 29 -333 87 -354 121 -4 5 7 19 23 30 61 43 221 91 371 110 111 14 401
12 522 -4z m348 -490 c0 -9 -23 -232 -51 -498 -40 -381 -54 -486 -66 -500 -28
-30 -138 -77 -230 -97 -242 -53 -539 -28 -712 59 -31 16 -62 35 -68 43 -11 13
-118 977 -109 985 2 3 42 -5 88 -16 145 -36 268 -52 448 -58 244 -8 475 20
630 76 68 24 70 24 70 6z"/>
</g>
</svg>
