<?xml version="1.0" standalone="no"?>
<!DOCTYPE svg PUBLIC "-//W3C//DTD SVG 20010904//EN"
 "http://www.w3.org/TR/2001/REC-SVG-20010904/DTD/svg10.dtd">
<svg version="1.0" xmlns="http://www.w3.org/2000/svg"
 width="790.000000pt" height="751.000000pt" viewBox="0 0 790.000000 751.000000"
 preserveAspectRatio="xMidYMid meet">

<g transform="translate(0.000000,751.000000) scale(0.100000,-0.100000)"
fill="#000000" stroke="none">
<path d="M4520 7455 c-36 -8 -99 -31 -140 -51 -71 -35 -99 -61 -552 -513 -463
-462 -478 -478 -514 -554 -84 -179 -84 -348 2 -526 36 -74 63 -102 1078 -1119
774 -776 1060 -1056 1114 -1092 100 -68 188 -94 317 -94 112 0 184 17 280 67
49 25 141 112 520 489 305 303 472 477 494 513 62 102 84 171 89 280 6 125 -8
192 -60 298 -40 81 -47 89 -1096 1139 -1142 1144 -1111 1114 -1257 1153 -88
23 -199 27 -275 10z m201 -444 c24 -16 495 -480 1046 -1032 1100 -1103 1041
-1037 1014 -1132 -11 -36 -73 -102 -430 -461 -279 -280 -429 -424 -456 -437
-48 -22 -85 -24 -128 -5 -33 14 -2050 2026 -2073 2068 -16 28 -18 87 -4 125
14 35 845 870 885 889 49 22 96 17 146 -15z"/>
<path d="M2940 7445 c-374 -84 -645 -352 -726 -718 -26 -114 -22 -300 9 -417
13 -52 220 -597 459 -1210 591 -1513 569 -1456 575 -1500 8 -61 -25 -104 -256
-334 l-210 -210 -79 76 c-191 182 -423 224 -642 117 -59 -29 -132 -100 -746
-713 -656 -655 -683 -684 -718 -756 -72 -150 -72 -317 1 -469 33 -70 57 -98
327 -370 295 -298 359 -352 465 -392 79 -30 207 -36 303 -15 145 32 142 30
869 756 611 610 669 671 702 736 116 226 79 447 -107 649 l-74 80 242 245
c134 135 255 266 270 291 52 92 76 183 76 294 0 63 -6 122 -16 156 -9 30 -237
623 -506 1319 -270 696 -497 1282 -504 1304 -96 270 63 577 335 648 127 33
251 19 366 -40 75 -39 164 -38 231 3 67 42 98 100 99 181 0 50 -5 69 -30 110
-27 43 -42 55 -131 100 -56 28 -133 59 -170 69 -93 25 -324 30 -414 10z m-302
-4848 l272 -273 0 -45 0 -44 -643 -642 -642 -643 -49 0 -49 0 -254 253 c-140
138 -263 267 -275 285 -46 74 -72 43 624 740 348 348 642 638 653 643 11 5 36
7 55 4 30 -4 72 -42 308 -278z"/>
<path d="M7129 4186 c-62 -16 -102 -52 -365 -318 -206 -207 -223 -227 -238
-278 -35 -117 19 -225 135 -265 117 -42 151 -20 451 281 252 254 287 299 288
369 1 144 -134 249 -271 211z"/>
</g>
</svg>
