<?xml version="1.0" standalone="no"?>
<!DOCTYPE svg PUBLIC "-//W3C//DTD SVG 20010904//EN"
 "http://www.w3.org/TR/2001/REC-SVG-20010904/DTD/svg10.dtd">
<svg version="1.0" xmlns="http://www.w3.org/2000/svg"
 width="806.000000pt" height="822.000000pt" viewBox="0 0 806.000000 822.000000"
 preserveAspectRatio="xMidYMid meet">

<g transform="translate(0.000000,822.000000) scale(0.100000,-0.100000)"
fill="#000000" stroke="none">
<path d="M4190 8184 c-233 -61 -410 -257 -438 -484 l-7 -55 -313 -3 -312 -2 0
-95 0 -95 900 0 900 0 0 118 c0 69 -6 143 -15 181 -50 212 -222 388 -427 436
-79 18 -216 18 -288 -1z"/>
<path d="M6241 7504 c-168 -41 -306 -75 -307 -77 -1 -1 16 -79 38 -173 l41
-170 301 73 c166 40 310 75 322 78 21 5 20 7 -20 175 -31 131 -44 170 -56 169
-8 0 -152 -34 -319 -75z"/>
<path d="M3350 7278 c0 -57 30 -210 57 -288 59 -174 138 -297 273 -430 114
-113 218 -178 357 -226 118 -40 199 -54 315 -54 l88 0 2 237 3 237 55 16 c92
28 163 67 227 125 110 99 170 214 188 358 l7 57 -786 0 -786 0 0 -32z m910
-482 l0 -334 -63 14 c-287 60 -531 287 -626 583 -12 35 -21 66 -21 68 0 1 160
3 355 3 l355 0 0 -334z"/>
<path d="M6715 7084 c-11 -3 -162 -39 -335 -80 -173 -42 -338 -86 -366 -99
-110 -49 -175 -144 -181 -265 -4 -70 7 -124 161 -765 115 -478 175 -706 193
-744 45 -89 149 -157 256 -168 45 -4 210 25 298 52 19 6 78 -65 178 -213 226
-337 304 -646 234 -932 -69 -287 -307 -463 -706 -521 -43 -6 -80 -9 -82 -7 -3
3 -82 328 -176 724 -94 395 -172 720 -173 721 -8 9 -1069 624 -1071 621 -12
-12 -175 -378 -175 -392 0 -10 32 -164 71 -344 l71 -326 -63 -61 c-35 -33
-276 -259 -534 -502 -275 -258 -480 -458 -493 -481 -52 -93 -52 -105 -55
-1055 l-2 -883 34 -68 c39 -77 116 -153 189 -188 40 -19 64 -22 162 -23 105 0
120 2 175 28 104 49 175 135 203 247 7 29 15 321 23 830 10 707 13 787 27 802
27 27 846 698 849 694 1 -1 45 -180 97 -397 52 -217 101 -412 108 -434 22 -63
1025 -1634 1072 -1678 70 -67 128 -90 232 -95 69 -3 105 0 145 13 109 35 193
106 246 207 25 49 27 62 28 168 0 99 -3 121 -21 156 -12 22 -219 348 -459 725
-376 587 -465 736 -465 779 0 4 27 10 59 14 163 19 368 86 500 165 198 119
323 284 383 503 20 72 23 106 23 263 -1 199 -8 246 -71 426 -55 159 -165 356
-294 526 -36 49 -42 44 85 73 115 27 179 57 232 108 62 60 86 113 91 202 3 70
-7 120 -148 705 -196 818 -184 775 -236 845 -55 75 -145 123 -238 126 -34 2
-70 0 -81 -2z"/>
<path d="M4960 6827 c-185 -56 -356 -229 -423 -427 -9 -25 -66 -182 -127 -350
-62 -168 -143 -390 -181 -494 -38 -104 -72 -192 -76 -196 -5 -4 -201 -75 -438
-159 -524 -185 -482 -168 -528 -210 -53 -48 -79 -104 -84 -181 -4 -57 -1 -72
24 -120 32 -63 93 -114 156 -131 81 -22 138 -7 478 121 178 67 413 155 523
196 228 86 241 92 278 131 28 29 48 70 260 528 71 154 138 289 149 300 13 13
33 20 60 20 81 0 90 -62 29 -196 -22 -49 -40 -92 -40 -97 0 -9 913 -542 929
-542 7 0 9 10 6 23 -2 12 -25 105 -49 207 -24 102 -54 228 -66 280 -13 52 -44
185 -70 295 -27 110 -58 243 -70 295 -51 222 -81 324 -115 393 -71 141 -162
239 -273 294 -67 33 -81 37 -175 40 -85 3 -115 -1 -177 -20z"/>
<path d="M2905 4620 c-11 -4 -29 -18 -41 -31 -11 -13 -301 -422 -644 -908
-483 -687 -623 -892 -627 -921 -6 -44 16 -92 52 -116 36 -23 110 -14 141 17
13 13 307 427 654 919 l631 895 -4 49 c-4 40 -11 55 -36 78 -32 29 -83 36
-126 18z"/>
<path d="M1478 2545 c-66 -66 -23 -175 68 -175 67 0 123 84 94 141 -32 63
-116 80 -162 34z"/>
<path d="M1175 2488 c-33 -19 -44 -41 -45 -86 0 -104 131 -141 183 -52 10 15
17 38 17 50 0 29 -26 77 -49 90 -26 13 -81 12 -106 -2z"/>
<path d="M882 2409 c-53 -11 -82 -45 -82 -97 0 -107 135 -142 185 -47 22 40
14 93 -18 122 -29 27 -46 31 -85 22z"/>
<path d="M544 2319 c-16 -5 -41 -20 -53 -33 -34 -36 -25 -110 16 -143 96 -77
220 56 136 146 -33 35 -57 42 -99 30z"/>
<path d="M1220 2203 c-20 -18 -33 -41 -37 -65 -5 -33 -2 -41 30 -73 28 -28 43
-35 73 -35 46 1 65 13 87 57 25 47 21 71 -17 109 -44 44 -92 46 -136 7z"/>
<path d="M1498 2207 c-73 -68 -27 -177 75 -177 64 0 111 83 81 145 -27 58
-110 74 -156 32z"/>
<path d="M1043 1940 c-28 -11 -53 -59 -53 -100 0 -38 47 -89 82 -91 48 -3 64
3 91 32 57 61 24 156 -58 164 -22 3 -50 1 -62 -5z"/>
<path d="M1524 1875 c-53 -37 -55 -128 -5 -165 43 -30 96 -27 132 9 44 44 43
102 -2 144 -34 31 -91 37 -125 12z"/>
<path d="M853 1660 c-27 -11 -53 -59 -53 -98 0 -60 77 -114 132 -93 56 21 86
99 58 152 -22 40 -88 59 -137 39z"/>
<path d="M1529 1521 c-23 -23 -29 -38 -29 -71 0 -91 106 -135 171 -71 48 49
38 125 -21 156 -46 24 -87 19 -121 -14z"/>
</g>
</svg>
