<?xml version="1.0" standalone="no"?>
<!DOCTYPE svg PUBLIC "-//W3C//DTD SVG 20010904//EN"
 "http://www.w3.org/TR/2001/REC-SVG-20010904/DTD/svg10.dtd">
<svg version="1.0" xmlns="http://www.w3.org/2000/svg"
 width="842.000000pt" height="715.000000pt" viewBox="0 0 842.000000 715.000000"
 preserveAspectRatio="xMidYMid meet">

<g transform="translate(0.000000,715.000000) scale(0.100000,-0.100000)"
fill="#000000" stroke="none">
<path d="M1140 6720 l0 -110 25 0 25 0 0 -395 0 -395 -145 0 c-142 0 -147 -1
-170 -25 -25 -24 -25 -27 -25 -190 0 -163 0 -166 25 -190 22 -22 32 -25 105
-25 l80 0 0 -595 0 -595 470 0 470 0 0 -38 c0 -28 7 -45 26 -63 l26 -24 381
-3 c250 -2 395 1 418 7 38 12 69 56 69 100 0 21 2 21 269 21 294 0 337 6 435
64 106 62 227 242 307 457 40 109 105 387 126 544 l17 125 86 0 c80 0 88 2
111 26 23 25 24 30 24 189 0 159 -1 164 -24 189 l-24 26 -1379 0 -1378 0 0
305 0 305 219 0 c131 0 231 -4 248 -11 47 -17 81 -58 93 -110 l12 -49 45 0 46
0 -5 50 c-7 70 -51 137 -116 176 -68 41 -89 44 -334 44 l-208 0 0 40 c0 33 3
40 20 40 19 0 20 7 20 110 l0 110 -195 0 -195 0 0 -110z"/>
<path d="M8402 5543 c-1 -363 1 -553 8 -553 12 0 12 753 1 970 -5 88 -8 -59
-9 -417z"/>
<path d="M4888 5280 c-278 -44 -519 -264 -588 -536 -36 -141 -23 -326 32 -457
60 -142 195 -292 324 -359 124 -65 201 -83 349 -82 111 1 141 5 207 26 121 40
203 92 299 187 141 143 209 304 209 500 0 127 -20 215 -74 326 -91 186 -261
324 -471 381 -66 18 -215 25 -287 14z"/>
<path d="M2290 3393 c0 -595 -1 -599 -57 -712 -38 -76 -143 -181 -218 -218
-102 -51 -162 -66 -260 -66 -231 0 -425 142 -506 373 -22 63 -23 79 -27 453
l-4 387 -514 0 -514 0 0 100 0 100 -95 0 -95 0 0 -355 0 -355 95 0 95 0 0 95
0 95 355 0 355 0 0 -217 c0 -120 5 -246 10 -281 54 -329 286 -588 617 -688 76
-23 107 -27 228 -28 153 -1 204 8 325 57 220 89 399 271 479 487 55 148 54
144 58 753 l4 567 -165 0 -166 0 0 -547z"/>
<path d="M3570 3774 c72 -152 80 -193 52 -256 -40 -91 -136 -129 -224 -90 -57
25 -82 59 -148 205 -30 64 -57 117 -61 117 -15 0 -70 -96 -86 -150 -77 -254
97 -528 353 -559 35 -4 65 -9 68 -12 2 -2 16 -28 30 -57 l27 -53 45 40 c62 54
127 75 219 69 l72 -5 -35 76 c-33 72 -34 77 -18 101 8 14 30 54 48 90 42 85
51 210 20 306 -52 167 -197 289 -358 302 l-64 5 60 -129z"/>
<path d="M5838 3830 c-187 -34 -350 -140 -414 -269 -25 -49 -29 -70 -32 -166
-6 -182 -12 -181 169 -8 185 179 219 198 339 191 138 -8 247 -93 290 -227 26
-83 22 -146 -17 -229 -26 -55 -197 -238 -333 -355 l-65 -57 70 -67 c39 -38
133 -128 210 -201 l140 -133 -65 5 c-36 3 -254 11 -485 17 -380 11 -425 11
-475 -4 -124 -37 -224 -127 -271 -244 l-24 -58 -3 -673 c-2 -433 1 -693 8
-729 24 -131 110 -247 223 -299 56 -26 72 -29 167 -29 97 0 110 2 170 31 95
46 143 93 187 182 l38 76 3 470 3 471 334 -11 c184 -6 337 -13 339 -15 2 -2
-111 -125 -250 -274 -140 -148 -268 -290 -285 -315 -71 -106 -86 -247 -39
-373 31 -81 119 -175 202 -213 l63 -29 1040 0 1040 0 60 28 c82 38 156 113
195 198 30 67 32 74 28 177 -2 90 -7 116 -29 162 -51 110 -166 197 -288 220
-32 6 -251 10 -533 10 l-480 0 90 98 c134 144 259 270 335 335 78 68 121 127
146 200 57 164 24 351 -106 611 -215 428 -416 711 -714 1002 -377 366 -579
486 -844 499 -49 2 -111 0 -137 -5z"/>
<path d="M5823 3510 c-54 -13 -105 -49 -173 -123 -200 -218 -472 -398 -735
-486 -141 -47 -259 -65 -430 -64 -179 0 -290 20 -482 88 -139 49 -191 55 -265
29 -109 -37 -174 -136 -166 -254 9 -126 69 -195 222 -253 372 -143 789 -168
1163 -71 275 71 563 218 805 411 127 100 327 304 353 358 10 22 21 68 23 103
4 55 1 70 -27 125 -57 114 -166 166 -288 137z"/>
<path d="M3840 2354 c0 -14 122 -277 142 -306 25 -36 95 -68 147 -68 54 0 115
33 142 77 29 47 35 129 12 173 -17 34 -21 35 -113 51 -77 13 -204 44 -312 76
-10 3 -18 1 -18 -3z"/>
</g>
</svg>
