<?xml version="1.0" standalone="no"?>
<!DOCTYPE svg PUBLIC "-//W3C//DTD SVG 20010904//EN"
 "http://www.w3.org/TR/2001/REC-SVG-20010904/DTD/svg10.dtd">
<svg version="1.0" xmlns="http://www.w3.org/2000/svg"
 width="832.000000pt" height="730.000000pt" viewBox="0 0 832.000000 730.000000"
 preserveAspectRatio="xMidYMid meet">

<g transform="translate(0.000000,730.000000) scale(0.100000,-0.100000)"
fill="#000000" stroke="none">
<path d="M3468 7235 c-212 -40 -387 -134 -589 -314 -53 -48 -69 -68 -69 -89 0
-23 55 -83 308 -335 253 -252 313 -307 335 -307 20 0 50 21 118 85 90 84 230
185 318 229 196 99 384 115 610 51 142 -40 161 -34 161 48 0 109 -149 301
-320 412 -143 93 -344 176 -503 209 -112 23 -278 28 -369 11z"/>
<path d="M6361 7049 c-410 -46 -772 -292 -962 -654 -152 -288 -185 -578 -103
-913 l25 -104 -20 -41 c-28 -57 -2601 -2628 -2650 -2647 -29 -12 -45 -10 -140
13 -263 65 -477 58 -723 -23 -185 -62 -336 -156 -479 -299 -209 -209 -331
-468 -361 -763 -13 -128 0 -320 26 -382 25 -60 106 -92 159 -64 12 6 209 195
439 420 l416 408 44 0 c24 0 55 -7 68 -16 51 -34 552 -540 572 -578 40 -78 48
-67 -408 -532 -407 -415 -414 -423 -414 -463 0 -86 41 -122 157 -140 101 -16
295 -14 394 4 181 32 387 121 530 229 414 313 587 822 455 1333 -23 89 -21
124 13 169 16 21 609 618 1317 1326 1141 1139 1293 1287 1326 1293 26 5 72 -2
150 -21 90 -22 143 -28 261 -32 173 -5 273 7 407 50 211 67 360 157 513 311
161 160 253 314 316 524 53 178 65 361 36 538 -13 82 -17 93 -49 123 -30 27
-44 32 -83 32 l-47 0 -415 -414 c-450 -448 -444 -443 -523 -417 -23 8 -122 99
-321 299 l-287 288 0 47 c0 27 6 60 14 75 8 15 195 207 415 427 278 277 402
408 406 427 9 39 -11 93 -45 122 -49 41 -264 64 -429 45z"/>
<path d="M2295 6691 c-27 -13 -216 -195 -578 -558 l-537 -538 65 -65 c40 -39
65 -73 65 -86 0 -14 -31 -51 -88 -106 -117 -112 -174 -128 -315 -88 l-47 14
-125 -124 c-69 -69 -125 -132 -125 -140 0 -23 1052 -1070 1074 -1070 23 0 255
226 262 255 3 11 -2 37 -11 57 -19 47 -19 148 0 194 8 20 49 72 92 115 96 99
106 100 189 18 l61 -60 540 548 c580 589 566 573 567 678 1 106 -1 108 -432
536 -289 288 -409 402 -443 417 -59 28 -157 29 -214 3z"/>
<path d="M3014 4818 c-276 -277 -284 -288 -269 -360 6 -26 74 -100 298 -325
l291 -293 45 0 45 0 269 268 c148 147 275 279 283 294 19 36 18 67 -4 100 -23
35 -538 534 -577 559 -18 11 -48 19 -75 19 l-45 0 -261 -262z"/>
<path d="M4813 3038 c-195 -195 -296 -303 -303 -324 -8 -25 -8 -40 3 -66 12
-29 974 -1018 1882 -1936 l260 -262 46 0 c35 0 55 7 85 29 36 27 217 207 502
502 l112 116 0 53 0 53 -82 82 c-79 78 -243 237 -1533 1481 -302 291 -561 538
-575 547 -13 9 -42 17 -64 17 -39 0 -47 -7 -333 -292z"/>
</g>
</svg>
