<?xml version="1.0" standalone="no"?>
<!DOCTYPE svg PUBLIC "-//W3C//DTD SVG 20010904//EN"
 "http://www.w3.org/TR/2001/REC-SVG-20010904/DTD/svg10.dtd">
<svg version="1.0" xmlns="http://www.w3.org/2000/svg"
 width="811.000000pt" height="785.000000pt" viewBox="0 0 811.000000 785.000000"
 preserveAspectRatio="xMidYMid meet">

<g transform="translate(0.000000,785.000000) scale(0.100000,-0.100000)"
fill="#000000" stroke="none">
<path d="M1430 7749 c-152 -25 -290 -148 -344 -305 -15 -44 -16 -296 -16
-2989 0 -2905 0 -2943 20 -3021 64 -252 253 -457 507 -548 85 -30 94 -31 248
-31 154 0 163 1 248 31 254 91 443 296 507 548 27 109 27 274 0 382 -50 196
-172 363 -345 473 -57 36 -191 90 -249 100 l-41 7 -3 489 c-2 420 0 500 13
563 50 224 233 420 460 492 63 20 100 23 360 29 283 7 292 8 360 34 133 52
253 164 312 293 14 30 32 91 41 135 14 71 14 86 1 122 -8 22 -27 50 -42 61
-28 21 -36 21 -768 24 l-739 2 0 110 0 110 720 0 720 0 0 110 0 110 -720 0
-720 0 0 115 0 115 720 0 720 0 0 110 0 110 -720 0 -720 0 0 110 0 110 720 0
720 0 0 110 0 110 -720 0 -720 0 0 115 0 115 720 0 720 0 0 110 0 110 -720 0
-720 0 0 110 0 110 720 0 720 0 0 115 0 115 -720 0 -720 0 0 110 0 110 731 0
c798 0 779 -1 810 57 21 40 14 146 -15 230 -59 173 -194 302 -381 364 -32 10
-206 14 -830 15 -437 1 -815 -2 -845 -7z m1647 -235 c28 -12 72 -39 98 -59 44
-36 95 -108 95 -133 0 -9 -183 -12 -734 -12 l-734 0 -30 -29 c-16 -17 -32 -44
-36 -62 -3 -17 -6 -631 -5 -1363 0 -1004 3 -1339 12 -1365 7 -19 25 -44 40
-55 28 -21 35 -21 758 -24 401 -1 729 -5 729 -8 0 -21 -48 -89 -90 -127 -83
-75 -106 -79 -420 -87 -316 -8 -371 -18 -526 -95 -274 -135 -459 -397 -494
-702 -15 -129 -12 -1089 3 -1132 19 -53 53 -72 146 -82 94 -9 133 -20 216 -62
76 -38 190 -152 232 -232 166 -319 -11 -710 -362 -800 -289 -73 -594 113 -670
410 -13 52 -15 395 -15 2955 0 1989 3 2907 11 2933 20 72 87 130 172 147 23 4
382 8 797 7 745 -2 756 -2 807 -23z"/>
<path d="M1740 1942 c-72 -28 -104 -48 -144 -93 -61 -67 -81 -120 -81 -219 0
-76 3 -92 33 -152 36 -73 86 -123 161 -159 36 -18 64 -23 132 -23 79 -1 91 2
154 34 85 43 147 114 171 197 45 153 -32 331 -173 399 -71 35 -185 42 -253 16z
m137 -212 c8 0 28 -13 44 -29 24 -24 29 -38 29 -76 0 -38 -5 -52 -29 -76 -42
-41 -106 -41 -150 0 -56 52 -38 146 33 177 17 7 37 11 44 9 8 -3 20 -5 29 -5z"/>
<path d="M4365 7749 c-43 -24 -495 -484 -505 -515 -9 -26 35 -247 274 -1393
275 -1322 284 -1364 312 -1391 22 -21 108 -56 352 -141 177 -63 322 -117 322
-120 0 -3 -19 -12 -42 -19 -302 -90 -532 -310 -626 -600 -31 -94 -42 -185 -42
-355 l0 -150 -52 -13 c-29 -6 -91 -30 -138 -53 -116 -57 -240 -180 -293 -289
-73 -149 -72 -141 -72 -750 0 -610 -1 -603 72 -750 57 -113 181 -236 293 -289
116 -55 185 -71 308 -71 161 0 304 53 428 159 106 91 181 215 215 357 19 81
20 111 17 627 -4 605 -1 577 -79 727 -44 86 -137 189 -219 243 -57 38 -205 97
-242 97 -21 0 -21 2 -15 178 3 97 11 195 17 217 66 236 209 393 440 483 41 16
144 53 228 82 l152 53 193 -68 c236 -83 316 -121 400 -190 80 -66 128 -128
172 -220 51 -107 65 -178 72 -363 l6 -167 -57 -12 c-179 -38 -355 -181 -442
-360 -63 -131 -65 -152 -62 -762 l3 -546 27 -80 c67 -197 220 -351 420 -423
95 -34 271 -43 369 -18 192 48 358 182 442 357 25 52 50 118 56 147 7 34 11
245 11 595 0 608 1 598 -72 747 -78 161 -256 303 -423 341 l-55 12 0 141 c0
173 -18 294 -60 408 -94 257 -285 442 -557 539 -51 18 -93 36 -93 39 0 3 145
57 322 120 220 78 331 122 350 139 27 25 38 73 308 1371 154 740 280 1360 280
1378 0 18 -6 45 -14 60 -24 46 -478 490 -509 497 -36 9 -70 0 -102 -28 -23
-19 -36 -55 -80 -222 -30 -110 -225 -846 -435 -1635 -210 -789 -388 -1458
-396 -1487 -12 -42 -20 -53 -44 -62 -36 -12 -87 2 -94 27 -3 10 -204 760 -445
1667 -242 908 -448 1665 -458 1683 -27 54 -90 76 -138 51z m389 -1823 c218
-819 395 -1492 394 -1496 -5 -11 -522 176 -530 191 -4 8 -84 383 -178 834 -93
451 -212 1021 -263 1267 l-93 447 130 130 c72 72 133 127 137 123 4 -4 185
-677 403 -1496z m2016 843 c-45 -217 -162 -781 -260 -1254 -99 -473 -183 -871
-187 -883 -7 -21 -45 -37 -273 -117 -146 -51 -265 -93 -266 -92 -1 1 179 678
400 1505 l401 1502 133 -134 134 -133 -82 -394z m-2118 -3938 c30 -10 68 -26
85 -35 51 -26 137 -111 166 -165 61 -111 60 -104 64 -624 3 -317 1 -503 -7
-550 -41 -268 -290 -438 -545 -372 -187 49 -313 197 -337 396 -5 45 -8 280 -6
542 l4 462 26 68 c54 141 143 225 298 283 54 20 187 17 252 -5z m1879 5 c158
-48 255 -143 310 -305 18 -50 19 -91 19 -571 0 -480 -1 -521 -19 -571 -30 -87
-55 -131 -111 -187 -137 -139 -348 -170 -529 -77 -56 28 -129 103 -168 170
-58 99 -58 104 -58 665 0 549 1 560 50 660 28 55 116 145 170 172 111 57 238
74 336 44z"/>
</g>
</svg>
